<?xml version="1.0" standalone="no"?>
<!DOCTYPE svg PUBLIC "-//W3C//DTD SVG 20010904//EN"
 "http://www.w3.org/TR/2001/REC-SVG-20010904/DTD/svg10.dtd">
<svg version="1.0" xmlns="http://www.w3.org/2000/svg"
 width="596.000000pt" height="596.000000pt" viewBox="0 0 596.000000 596.000000"
 preserveAspectRatio="xMidYMid meet">
<metadata>
Created by potrace 1.11, written by Peter Selinger 2001-2013
</metadata>
<g transform="translate(0.000000,596.000000) scale(0.100000,-0.100000)"
fill="#000000" stroke="none">
<path d="M3840 5935 c-240 -65 -696 -218 -1515 -510 -991 -354 -1155 -419
-1203 -480 -12 -16 -23 -49 -27 -83 -4 -31 -8 -68 -11 -82 -2 -14 -6 -68 -9
-120 -4 -52 -8 -106 -10 -120 -2 -14 -7 -79 -10 -145 -4 -66 -8 -136 -10 -155
-2 -19 -6 -91 -10 -160 -4 -69 -8 -147 -10 -175 -2 -27 -6 -106 -9 -175 -4
-69 -9 -159 -11 -200 -3 -41 -7 -127 -10 -190 -3 -63 -7 -160 -10 -215 -2 -55
-7 -176 -11 -270 -3 -93 -8 -199 -9 -235 -2 -36 -6 -148 -10 -250 -4 -102 -8
-214 -10 -250 -2 -36 -7 -157 -10 -270 -4 -113 -8 -252 -11 -310 -2 -58 -7
-340 -10 -627 l-7 -521 54 -59 c174 -188 284 -282 369 -313 19 -7 91 -14 160
-15 177 -4 278 18 430 94 98 50 462 211 476 211 2 0 23 9 47 19 85 39 561 233
907 371 195 77 364 145 375 150 24 12 341 135 410 160 205 74 526 205 575 235
92 56 130 115 145 225 3 25 8 56 10 70 7 47 21 199 30 330 3 47 8 108 10 135
2 28 7 111 11 185 3 74 8 158 9 185 1 28 6 115 9 195 4 80 9 174 11 210 2 36
7 137 10 225 4 88 8 189 10 225 2 36 6 130 9 210 4 80 8 177 11 215 2 39 7
133 11 210 10 245 12 288 19 430 3 77 8 174 10 215 2 41 7 152 11 245 13 282
11 653 -4 717 -22 96 -48 113 -182 122 -254 17 -457 91 -648 235 -102 77 -177
117 -237 124 -25 3 -72 -3 -125 -18z m240 -129 c0 -15 -142 -88 -262 -135 -73
-29 -386 -145 -1303 -484 -126 -46 -324 -119 -440 -162 -115 -42 -219 -81
-230 -86 -21 -9 -206 -78 -365 -135 -101 -37 -160 -44 -186 -23 -23 19 -44 64
-44 94 0 22 9 30 55 51 140 64 1176 413 1915 644 91 29 190 60 220 70 30 10
116 37 190 61 74 23 187 59 250 80 121 39 200 50 200 25z m158 -133 c-3 -29
-51 -57 -248 -145 -352 -157 -1393 -559 -1915 -740 -343 -119 -494 -154 -467
-111 6 10 92 52 187 92 11 5 31 13 45 19 76 33 909 360 1100 432 41 15 237 91
435 167 198 77 428 166 510 198 83 31 159 61 170 66 52 25 159 57 172 52 8 -3
13 -16 11 -30z m369 -180 c6 -16 -15 -26 -186 -90 -385 -145 -1588 -549 -1796
-603 -16 -4 -75 -22 -131 -39 -103 -31 -177 -49 -229 -57 -16 -3 -36 -7 -42
-9 -22 -7 -14 14 11 30 28 19 255 109 546 217 118 43 224 83 235 88 11 5 72
28 135 50 63 23 133 48 155 57 22 8 110 39 195 69 85 30 191 68 235 84 299
109 618 202 740 216 28 4 51 7 53 9 8 6 76 -12 79 -22z m276 -176 c5 -14 2
-257 -7 -467 -14 -321 -26 -578 -31 -670 -2 -30 -6 -120 -9 -200 -4 -80 -9
-174 -11 -210 -3 -36 -7 -119 -10 -185 -3 -66 -8 -156 -10 -200 -2 -44 -7
-138 -10 -210 -4 -71 -8 -161 -11 -200 -2 -38 -6 -110 -9 -160 -2 -49 -7 -135
-11 -190 -3 -55 -7 -129 -9 -165 -2 -36 -6 -110 -10 -165 -3 -55 -8 -134 -10
-175 -5 -76 -13 -197 -20 -280 -2 -25 -6 -83 -10 -130 -11 -152 -17 -204 -31
-273 -7 -35 -14 -38 -431 -208 -13 -5 -33 -13 -45 -19 -13 -5 -138 -55 -278
-110 -140 -55 -264 -105 -275 -110 -50 -22 -1095 -422 -1260 -482 -224 -82
-223 -81 -238 -52 -9 17 -11 48 -6 112 4 48 10 121 13 162 3 41 8 100 11 130
6 72 12 160 20 295 3 61 8 137 10 170 4 68 14 234 20 345 5 86 12 226 20 385
3 61 8 146 11 190 2 44 6 121 9 170 6 126 15 298 20 375 3 36 7 115 10 175 13
280 16 324 20 385 2 36 6 119 10 185 3 66 8 147 10 180 3 33 7 101 10 150 8
139 16 257 20 295 2 19 6 73 10 120 3 47 8 96 10 110 2 14 7 63 10 110 4 47 9
88 11 91 2 4 14 9 26 12 13 2 165 48 338 101 701 216 807 249 850 261 25 7
243 72 485 145 455 137 738 218 766 219 9 1 19 -5 22 -12z m-3468 -729 c204
-86 274 -96 470 -71 61 8 121 16 135 17 14 2 43 8 65 14 97 24 95 25 106 -5 6
-16 11 -71 11 -123 1 -99 -11 -425 -17 -495 -4 -35 -12 -157 -20 -295 -3 -48
-12 -132 -21 -193 -7 -44 -23 -55 -141 -92 -146 -45 -236 -59 -393 -59 -165 0
-275 30 -339 95 -71 71 -84 149 -81 504 1 154 3 316 5 360 5 159 16 360 20
380 2 11 4 23 4 27 2 11 70 -11 196 -64z m-169 -1367 c118 -57 144 -68 204
-86 135 -39 301 -38 550 5 30 5 74 12 98 15 l44 6 -7 -138 c-3 -76 -8 -167
-10 -203 -2 -36 -7 -117 -10 -180 -3 -63 -8 -144 -10 -180 -2 -36 -7 -112 -10
-170 -18 -323 -30 -500 -40 -587 -19 -167 -39 -232 -78 -258 -33 -21 -160 -33
-337 -29 -205 4 -292 12 -374 37 -45 13 -123 86 -134 126 -13 46 -4 863 13
1201 2 36 6 153 10 260 8 229 8 220 11 220 1 0 37 -17 80 -39z m31 -1947 c167
-55 227 -64 403 -60 85 3 199 8 253 12 l97 7 0 -462 c0 -253 -2 -461 -4 -461
-2 0 -48 -13 -102 -29 -130 -39 -211 -59 -259 -66 -22 -3 -47 -8 -55 -11 -34
-13 -189 -12 -236 0 -160 42 -273 138 -290 246 -12 77 -6 427 12 660 13 180
18 200 50 200 13 0 72 -16 131 -36z"/>
</g>
</svg>
